<svg version="1.0" xmlns="http://www.w3.org/2000/svg"
 width="512.000000pt" height="512.000000pt" viewBox="0 0 512.000000 512.000000"
 preserveAspectRatio="xMidYMid meet">
<g transform="translate(0.000000,512.000000) scale(0.100000,-0.100000)"
fill="#ffffff" stroke="none">
<path d="M1999 4466 c-75 -20 -129 -59 -240 -173 -111 -114 -138 -160 -154
-264 -8 -56 8 -147 36 -208 17 -35 173 -198 628 -654 l606 -607 -612 -613
c-581 -583 -612 -615 -633 -672 -32 -84 -32 -198 0 -280 32 -82 214 -271 304
-315 125 -62 273 -48 384 35 31 24 406 393 833 821 615 616 782 790 803 831
55 111 55 275 0 386 -21 41 -188 214 -807 835 -430 431 -804 799 -830 819 -87
65 -212 88 -318 59z"/>
</g>
</svg>
